<svg id="Capa_1" data-name="Capa 1" xmlns="http://www.w3.org/2000/svg" viewBox="0 0 40 47.36">
  <path d="M39.24,8.85a8.67,8.67,0,0,0-11-4.55,9.89,9.89,0,0,0-16.37.09,8.66,8.66,0,0,0-6.63,16C6.18,26.65,7.1,33.65,7.15,35.15l0,0.77c0,3-.05,9,0,9A2.87,2.87,0,0,0,8,46.06a47.15,47.15,0,0,0,11,1.28l1.13,0a48.64,48.64,0,0,0,12.14-1.29,2.88,2.88,0,0,0,.84-1.1c0-.06-0.06-5.7,0-8.81h0l0-1c0.06-1.76,1.26-10.57,1.88-15A8.68,8.68,0,0,0,39.24,8.85Zm-18,36.25H20.14a54.71,54.71,0,0,1-10.72-1c0-1.55,0-4.75,0-7.11a97,97,0,0,0,10.67.57,96.7,96.7,0,0,0,10.72-.59c0,2.36,0,5.59,0,7.14A54.31,54.31,0,0,1,21.27,45.09Zm16.26-31a6.63,6.63,0,0,1-4.21,4.42L33,18.63l-0.1.66c0,0.12-1.6,11.18-1.93,15a93,93,0,0,1-10.87.62,92.06,92.06,0,0,1-10.71-.6C9.07,31.09,7.84,22.25,7.44,19.4l-0.1-.7-0.41-.13A6.61,6.61,0,0,1,2.5,14.18a6.41,6.41,0,0,1,9.29-7.36l1,0.56,0.55-1a7.87,7.87,0,0,1,6.81-4.13,7.75,7.75,0,0,1,6.75,4l0.54,0.94,1-.5a6.31,6.31,0,0,1,3-.72A6.42,6.42,0,0,1,37.53,14.08Z" />
  <path d="M14.11,18.42a0.66,0.66,0,0,0-.44-0.16l-1.38.06a0.61,0.61,0,0,0-.58.63L12,26.15a0.61,0.61,0,0,0,.61.58h0L14,26.68A0.61,0.61,0,0,0,14.59,26L14.3,18.84A0.61,0.61,0,0,0,14.11,18.42Z" />
  <rect x="18.84" y="18.29" width="2.59" height="8.78" rx="0.61" ry="0.61" />
  <path d="M27.83,18.32l-1.38-.06a0.66,0.66,0,0,0-.44.16,0.6,0.6,0,0,0-.19.42L25.52,26a0.61,0.61,0,0,0,.58.63l1.38,0.06h0a0.61,0.61,0,0,0,.61-0.58L28.41,19A0.61,0.61,0,0,0,27.83,18.32Z" />
</svg>